llowing the deadly climax of "Green Street Hooligans," several members of the West Ham firm and numerous members of Millwall end up in jail. The GSE quickly discover the brutality of life on the inside, as they are constant targets of the superior numbers and better-financed Millwall crew
 
http://www.imdb.com/title/tt1300853/

# Elijah Wood as Matt Buckner
# Charlie Hunnam as Pete Dunham
# Leo Gregory as Bovver
# Claire Forlani as Shannon Buckner Dunham
# Marc Warren as Steve Dunham
# Ross McCall as Dave
# Rafe Spall as Swill
# Kieran Bew as Ike
# Joshua Kennedy as Lad
 
http://img852.imageshack.us/img852/8080/23206216.png
 
http://img34.imageshack.us/img34/236/15710160.png
 
http://img215.imageshack.us/img215/7082/43503846.png
 
http://img38.imageshack.us/img38/2013/24281021.png
 
http://img8.imageshack.us/img8/6472/64710037.png
 
http://img573.imageshack.us/img573/5021/35180379.png
 
http://img718.imageshack.us/img718/4739/37630417.png
 
http://img600.imageshack.us/img600/9924/31282798.png



General
Complete name : GREEN STREET HOOLIGANS 2.avi
Format : AVI
Format/Info : Audio Video Interleave
File size : 900 MiB
Duration : 1h 30mn
Overall bit rate : 1 391 Kbps
Writing application : VirtualDubMod 1.5.4.1 (build 2178/release)
Writing library : VirtualDubMod build 2178/release

Video
ID : 0
Format : MPEG-4 Visual
Format profile : Advanced Simple@L5
Format settings, BVOP : Yes
Format settings, QPel : No
Format settings, GMC : No warppoints
Format settings, Matrix : Default (H.263)
Muxing mode : Packed bitstream
Codec ID : XVID
Codec ID/Hint : XviD
Duration : 1h 30mn
Bit rate : 880 Kbps
Width : 592 pixels
Height : 336 pixels
Display aspect ratio : 16:9
Frame rate : 25.000 fps
Color space : YUV
Chroma subsampling : 4:2:0
Bit depth : 8 bits
Scan type : Progressive
Bits/(Pixel*Frame) : 0.177
Stream size : 569 MiB (63%)
Writing library : XviD 1.2.1 (UTC 2008-12-04)

Audio #1
ID : 1
Format : AC-3
Format/Info : Audio Coding 3
Mode extension : CM (complete main)
Codec ID : 2000
Duration : 1h 30mn
Bit rate mode : Constant
Bit rate : 384 Kbps
Channel(s) : 6 channels
Channel positions : Front: L C R, Side: L R, LFE
Sampling rate : 48.0 KHz
Bit depth : 16 bits
Video delay : 8ms
Stream size : 248 MiB (28%)
Alignment : Split accross interleaves
Interleave, duration : 80 ms (2.01 video frames)
Interleave, preload duration : 500 ms
Language : English

Audio #2
ID : 2
Format : MPEG Audio
Format version : Version 1
Format profile : Layer 3
Mode : Joint stereo
Mode extension : MS Stereo
Codec ID : 55
Codec ID/Hint : MP3
Duration : 1h 30mn
Bit rate mode : Variable
Bit rate : 113 Kbps
Nominal bit rate : 128 Kbps
Channel(s) : 2 channels
Sampling rate : 48.0 KHz
Stream size : 73.2 MiB (8%)
Alignment : Aligned on interleaves
Interleave, duration : 24 ms (0.60 video frame)
Interleave, preload duration : 162 ms
Writing library : LAME3.98r
Encoding settings : -m j -V 4 -q 2 -lowpass 17 --abr 128
Language : English